<?plantuml 1.2026.2?><svg xmlns="http://www.w3.org/2000/svg" xmlns:xlink="http://www.w3.org/1999/xlink" contentStyleType="text/css" data-diagram-type="CLASS" height="957px" preserveAspectRatio="none" style="width:1936px;height:957px;background:#FFFFFF;" version="1.1" viewBox="0 0 1936 957" width="1936px" zoomAndPan="magnify"><title>Core Implementation View</title><defs/><g><g class="title" data-source-line="1"><text fill="#000000" font-family="sans-serif" font-size="14" font-weight="bold" lengthAdjust="spacing" textLength="190.8184" x="866.0658" y="23.5352">Core Implementation View</text></g><!--cluster contracts--><g class="cluster" data-qualified-name="contracts" data-source-line="7" id="ent0002"><path d="M60.5,450.4983 L128.3965,450.4983 A3.75,3.75 0 0 1 130.8965,452.9983 L137.8965,472.9866 L511.5,472.9866 A2.5,2.5 0 0 1 514,475.4866 L514,715.3183 A2.5,2.5 0 0 1 511.5,717.8183 L60.5,717.8183 A2.5,2.5 0 0 1 58,715.3183 L58,452.9983 A2.5,2.5 0 0 1 60.5,450.4983" fill="none" style="stroke:#000000;stroke-width:1.5;"/><line style="stroke:#000000;stroke-width:1.5;" x1="58" x2="137.8965" y1="472.9866" y2="472.9866"/><text fill="#000000" font-family="sans-serif" font-size="14" font-weight="bold" lengthAdjust="spacing" textLength="66.8965" x="62" y="466.0334">contracts</text></g><!--cluster core--><g class="cluster" data-qualified-name="core" data-source-line="15" id="ent0008"><path d="M540.5,175.4883 L572.46,175.4883 A3.75,3.75 0 0 1 574.96,177.9883 L581.96,197.9766 L1267.5,197.9766 A2.5,2.5 0 0 1 1270,200.4766 L1270,947.9783 A2.5,2.5 0 0 1 1267.5,950.4783 L540.5,950.4783 A2.5,2.5 0 0 1 538,947.9783 L538,177.9883 A2.5,2.5 0 0 1 540.5,175.4883" fill="none" style="stroke:#000000;stroke-width:1.5;"/><line style="stroke:#000000;stroke-width:1.5;" x1="538" x2="581.96" y1="197.9766" y2="197.9766"/><text fill="#000000" font-family="sans-serif" font-size="14" font-weight="bold" lengthAdjust="spacing" textLength="30.96" x="542" y="191.0234">core</text></g><!--cluster apps--><g class="cluster" data-qualified-name="apps" data-source-line="66" id="ent0016"><path d="M1351.5,43.4883 L1387.1992,43.4883 A3.75,3.75 0 0 1 1389.6992,45.9883 L1396.6992,65.9766 L1894.5,65.9766 A2.5,2.5 0 0 1 1897,68.4766 L1897,139.9883 A2.5,2.5 0 0 1 1894.5,142.4883 L1351.5,142.4883 A2.5,2.5 0 0 1 1349,139.9883 L1349,45.9883 A2.5,2.5 0 0 1 1351.5,43.4883" fill="none" style="stroke:#000000;stroke-width:1.5;"/><line style="stroke:#000000;stroke-width:1.5;" x1="1349" x2="1396.6992" y1="65.9766" y2="65.9766"/><text fill="#000000" font-family="sans-serif" font-size="14" font-weight="bold" lengthAdjust="spacing" textLength="34.6992" x="1353" y="59.0234">apps</text></g><!--cluster modalities--><g class="cluster" data-qualified-name="modalities" data-source-line="72" id="ent0020"><path d="M8.5,233.1983 L84.9756,233.1983 A3.75,3.75 0 0 1 87.4756,235.6983 L94.4756,255.6866 L368.5,255.6866 A2.5,2.5 0 0 1 371,258.1866 L371,329.6983 A2.5,2.5 0 0 1 368.5,332.1983 L8.5,332.1983 A2.5,2.5 0 0 1 6,329.6983 L6,235.6983 A2.5,2.5 0 0 1 8.5,233.1983" fill="none" style="stroke:#000000;stroke-width:1.5;"/><line style="stroke:#000000;stroke-width:1.5;" x1="6" x2="94.4756" y1="255.6866" y2="255.6866"/><text fill="#000000" font-family="sans-serif" font-size="14" font-weight="bold" lengthAdjust="spacing" textLength="75.4756" x="10" y="248.7334">modalities</text></g><!--class GestureEvent--><g class="entity" data-qualified-name="contracts.GestureEvent" data-source-line="8" id="ent0003"><rect fill="#F1F1F1" height="48" rx="2.5" ry="2.5" style="stroke:#181818;stroke-width:0.5;" width="121.0654" x="214.47" y="485.4983"/><ellipse cx="229.47" cy="501.4983" fill="#ADD1B2" rx="11" ry="11" style="stroke:#181818;stroke-width:1;"/><path d="M231.9431,507.6413 Q231.3621,507.9402 230.7229,508.0896 Q230.0838,508.239 229.3782,508.239 Q226.8714,508.239 225.5515,506.5871 Q224.2317,504.9353 224.2317,501.8142 Q224.2317,498.6848 225.5515,497.0329 Q226.8714,495.3811 229.3782,495.3811 Q230.0838,495.3811 230.7312,495.5305 Q231.3787,495.6799 231.9431,495.9788 L231.9431,498.7014 Q231.3123,498.1204 230.7188,497.8506 Q230.1253,497.5808 229.4944,497.5808 Q228.1497,497.5808 227.4649,498.6475 Q226.7801,499.7141 226.7801,501.8142 Q226.7801,503.906 227.4649,504.9726 Q228.1497,506.0393 229.4944,506.0393 Q230.1253,506.0393 230.7188,505.7695 Q231.3123,505.4997 231.9431,504.9187 Z " fill="#000000"/><text fill="#000000" font-family="sans-serif" font-size="14" lengthAdjust="spacing" textLength="89.0654" x="243.47" y="506.7893">GestureEvent</text><line style="stroke:#181818;stroke-width:0.5;" x1="215.47" x2="334.5354" y1="517.4983" y2="517.4983"/><line style="stroke:#181818;stroke-width:0.5;" x1="215.47" x2="334.5354" y1="525.4983" y2="525.4983"/></g><!--class VoiceEvent--><g class="entity" data-qualified-name="contracts.VoiceEvent" data-source-line="9" id="ent0004"><rect fill="#F1F1F1" height="48" rx="2.5" ry="2.5" style="stroke:#181818;stroke-width:0.5;" width="105.3291" x="74.34" y="485.4983"/><ellipse cx="89.34" cy="501.4983" fill="#ADD1B2" rx="11" ry="11" style="stroke:#181818;stroke-width:1;"/><path d="M91.8131,507.6413 Q91.2321,507.9402 90.5929,508.0896 Q89.9538,508.239 89.2482,508.239 Q86.7414,508.239 85.4215,506.5871 Q84.1017,504.9353 84.1017,501.8142 Q84.1017,498.6848 85.4215,497.0329 Q86.7414,495.3811 89.2482,495.3811 Q89.9538,495.3811 90.6012,495.5305 Q91.2487,495.6799 91.8131,495.9788 L91.8131,498.7014 Q91.1823,498.1204 90.5888,497.8506 Q89.9953,497.5808 89.3644,497.5808 Q88.0197,497.5808 87.3349,498.6475 Q86.6501,499.7141 86.6501,501.8142 Q86.6501,503.906 87.3349,504.9726 Q88.0197,506.0393 89.3644,506.0393 Q89.9953,506.0393 90.5888,505.7695 Q91.1823,505.4997 91.8131,504.9187 Z " fill="#000000"/><text fill="#000000" font-family="sans-serif" font-size="14" lengthAdjust="spacing" textLength="73.3291" x="103.34" y="506.7893">VoiceEvent</text><line style="stroke:#181818;stroke-width:0.5;" x1="75.34" x2="178.6691" y1="517.4983" y2="517.4983"/><line style="stroke:#181818;stroke-width:0.5;" x1="75.34" x2="178.6691" y1="525.4983" y2="525.4983"/></g><!--class ActionPayload--><g class="entity" data-qualified-name="contracts.ActionPayload" data-source-line="10" id="ent0005"><rect fill="#F1F1F1" height="48" rx="2.5" ry="2.5" style="stroke:#181818;stroke-width:0.5;" width="127.375" x="370.31" y="485.4983"/><ellipse cx="385.31" cy="501.4983" fill="#ADD1B2" rx="11" ry="11" style="stroke:#181818;stroke-width:1;"/><path d="M387.7831,507.6413 Q387.2021,507.9402 386.5629,508.0896 Q385.9238,508.239 385.2182,508.239 Q382.7114,508.239 381.3915,506.5871 Q380.0717,504.9353 380.0717,501.8142 Q380.0717,498.6848 381.3915,497.0329 Q382.7114,495.3811 385.2182,495.3811 Q385.9238,495.3811 386.5712,495.5305 Q387.2187,495.6799 387.7831,495.9788 L387.7831,498.7014 Q387.1523,498.1204 386.5588,497.8506 Q385.9653,497.5808 385.3344,497.5808 Q383.9897,497.5808 383.3049,498.6475 Q382.6201,499.7141 382.6201,501.8142 Q382.6201,503.906 383.3049,504.9726 Q383.9897,506.0393 385.3344,506.0393 Q385.9653,506.0393 386.5588,505.7695 Q387.1523,505.4997 387.7831,504.9187 Z " fill="#000000"/><text fill="#000000" font-family="sans-serif" font-size="14" lengthAdjust="spacing" textLength="95.375" x="399.31" y="506.7893">ActionPayload</text><line style="stroke:#181818;stroke-width:0.5;" x1="371.31" x2="496.685" y1="517.4983" y2="517.4983"/><line style="stroke:#181818;stroke-width:0.5;" x1="371.31" x2="496.685" y1="525.4983" y2="525.4983"/></g><!--class GestureType--><g class="entity" data-qualified-name="contracts.GestureType" data-source-line="11" id="ent0006"><rect fill="#F1F1F1" height="48" rx="2.5" ry="2.5" style="stroke:#181818;stroke-width:0.5;" width="117.2852" x="216.36" y="653.8183"/><ellipse cx="231.36" cy="669.8183" fill="#EB937F" rx="11" ry="11" style="stroke:#181818;stroke-width:1;"/><path d="M234.9743,676.3183 L227.2545,676.3183 L227.2545,663.9252 L234.9743,663.9252 L234.9743,666.0834 L229.7033,666.0834 L229.7033,668.7563 L234.4762,668.7563 L234.4762,670.9145 L229.7033,670.9145 L229.7033,674.1601 L234.9743,674.1601 Z " fill="#000000"/><text fill="#000000" font-family="sans-serif" font-size="14" lengthAdjust="spacing" textLength="85.2852" x="245.36" y="675.1093">GestureType</text><line style="stroke:#181818;stroke-width:0.5;" x1="217.36" x2="332.6452" y1="685.8183" y2="685.8183"/><line style="stroke:#181818;stroke-width:0.5;" x1="217.36" x2="332.6452" y1="693.8183" y2="693.8183"/></g><!--class ActionType--><g class="entity" data-qualified-name="contracts.ActionType" data-source-line="12" id="ent0007"><rect fill="#F1F1F1" height="48" rx="2.5" ry="2.5" style="stroke:#181818;stroke-width:0.5;" width="108.1797" x="379.91" y="653.8183"/><ellipse cx="394.91" cy="669.8183" fill="#EB937F" rx="11" ry="11" style="stroke:#181818;stroke-width:1;"/><path d="M398.5243,676.3183 L390.8045,676.3183 L390.8045,663.9252 L398.5243,663.9252 L398.5243,666.0834 L393.2533,666.0834 L393.2533,668.7563 L398.0262,668.7563 L398.0262,670.9145 L393.2533,670.9145 L393.2533,674.1601 L398.5243,674.1601 Z " fill="#000000"/><text fill="#000000" font-family="sans-serif" font-size="14" lengthAdjust="spacing" textLength="76.1797" x="408.91" y="675.1093">ActionType</text><line style="stroke:#181818;stroke-width:0.5;" x1="380.91" x2="487.0897" y1="685.8183" y2="685.8183"/><line style="stroke:#181818;stroke-width:0.5;" x1="380.91" x2="487.0897" y1="693.8183" y2="693.8183"/></g><!--class CollaborationRuntime--><g class="entity" data-qualified-name="core.CollaborationRuntime" data-source-line="16" id="ent0009"><rect fill="#F1F1F1" height="163.418" rx="2.5" ry="2.5" style="stroke:#181818;stroke-width:0.5;" width="195.5244" x="753.24" y="210.4883"/><ellipse cx="775.2546" cy="226.4883" fill="#ADD1B2" rx="11" ry="11" style="stroke:#181818;stroke-width:1;"/><path d="M777.7277,232.6313 Q777.1466,232.9302 776.5075,233.0796 Q775.8683,233.229 775.1628,233.229 Q772.6559,233.229 771.3361,231.5771 Q770.0163,229.9253 770.0163,226.8042 Q770.0163,223.6748 771.3361,222.0229 Q772.6559,220.3711 775.1628,220.3711 Q775.8683,220.3711 776.5158,220.5205 Q777.1632,220.6699 777.7277,220.9688 L777.7277,223.6914 Q777.0968,223.1104 776.5033,222.8406 Q775.9098,222.5708 775.279,222.5708 Q773.9342,222.5708 773.2494,223.6375 Q772.5646,224.7041 772.5646,226.8042 Q772.5646,228.896 773.2494,229.9626 Q773.9342,231.0293 775.279,231.0293 Q775.9098,231.0293 776.5033,230.7595 Q777.0968,230.4897 777.7277,229.9087 Z " fill="#000000"/><text fill="#000000" font-family="sans-serif" font-size="14" lengthAdjust="spacing" textLength="147.9365" x="790.8133" y="231.7793">CollaborationRuntime</text><line style="stroke:#181818;stroke-width:0.5;" x1="754.24" x2="947.7644" y1="242.4883" y2="242.4883"/><text fill="#000000" font-family="sans-serif" font-size="14" lengthAdjust="spacing" textLength="105.0615" x="759.24" y="260.0234">+bus: EventBus</text><text fill="#000000" font-family="sans-serif" font-size="14" lengthAdjust="spacing" textLength="152.5029" x="759.24" y="276.5117">+fusion: FusionEngine</text><text fill="#000000" font-family="sans-serif" font-size="14" lengthAdjust="spacing" textLength="183.5244" x="759.24" y="293">+router: ApplicationRouter</text><line style="stroke:#181818;stroke-width:0.5;" x1="754.24" x2="947.7644" y1="299.9531" y2="299.9531"/><text fill="#000000" font-family="sans-serif" font-size="14" lengthAdjust="spacing" textLength="130.1494" x="759.24" y="317.4883">+register_app(app)</text><text fill="#000000" font-family="sans-serif" font-size="14" lengthAdjust="spacing" textLength="164.2061" x="759.24" y="333.9766">+set_active_app(app_id)</text><text fill="#000000" font-family="sans-serif" font-size="14" lengthAdjust="spacing" textLength="160.8906" x="759.24" y="350.4648">+handle_gesture(event)</text><text fill="#000000" font-family="sans-serif" font-size="14" lengthAdjust="spacing" textLength="144.6348" x="759.24" y="366.9531">+handle_voice(event)</text></g><!--class EventBus--><g class="entity" data-qualified-name="core.EventBus" data-source-line="26" id="ent0010"><rect fill="#F1F1F1" height="113.9531" rx="2.5" ry="2.5" style="stroke:#181818;stroke-width:0.5;" width="204.6709" x="553.66" y="452.5183"/><ellipse cx="621.5272" cy="468.5183" fill="#ADD1B2" rx="11" ry="11" style="stroke:#181818;stroke-width:1;"/><path d="M624.0003,474.6613 Q623.4193,474.9602 622.7801,475.1096 Q622.141,475.259 621.4354,475.259 Q618.9286,475.259 617.6087,473.6071 Q616.2889,471.9553 616.2889,468.8342 Q616.2889,465.7048 617.6087,464.0529 Q618.9286,462.4011 621.4354,462.4011 Q622.141,462.4011 622.7884,462.5505 Q623.4359,462.6999 624.0003,462.9988 L624.0003,465.7214 Q623.3695,465.1404 622.776,464.8706 Q622.1825,464.6008 621.5516,464.6008 Q620.2069,464.6008 619.5221,465.6675 Q618.8372,466.7341 618.8372,468.8342 Q618.8372,470.926 619.5221,471.9926 Q620.2069,473.0593 621.5516,473.0593 Q622.1825,473.0593 622.776,472.7895 Q623.3695,472.5197 624.0003,471.9387 Z " fill="#000000"/><text fill="#000000" font-family="sans-serif" font-size="14" lengthAdjust="spacing" textLength="60.4365" x="642.0272" y="473.8093">EventBus</text><line style="stroke:#181818;stroke-width:0.5;" x1="554.66" x2="757.3309" y1="484.5183" y2="484.5183"/><line style="stroke:#181818;stroke-width:0.5;" x1="554.66" x2="757.3309" y1="492.5183" y2="492.5183"/><text fill="#000000" font-family="sans-serif" font-size="14" lengthAdjust="spacing" textLength="187.9678" x="559.66" y="510.0534">+subscribe_events(handler)</text><text fill="#000000" font-family="sans-serif" font-size="14" lengthAdjust="spacing" textLength="192.6709" x="559.66" y="526.5417">+subscribe_actions(handler)</text><text fill="#000000" font-family="sans-serif" font-size="14" lengthAdjust="spacing" textLength="151.0059" x="559.66" y="543.03">+publish_event(event)</text><text fill="#000000" font-family="sans-serif" font-size="14" lengthAdjust="spacing" textLength="160.4121" x="559.66" y="559.5183">+publish_action(action)</text></g><!--class FusionEngine--><g class="entity" data-qualified-name="core.FusionEngine" data-source-line="33" id="ent0011"><rect fill="#F1F1F1" height="97.4648" rx="2.5" ry="2.5" style="stroke:#181818;stroke-width:0.5;" width="248.9746" x="793.51" y="460.7683"/><ellipse cx="868.6438" cy="476.7683" fill="#ADD1B2" rx="11" ry="11" style="stroke:#181818;stroke-width:1;"/><path d="M871.1169,482.9113 Q870.5359,483.2102 869.8967,483.3596 Q869.2576,483.509 868.552,483.509 Q866.0452,483.509 864.7253,481.8571 Q863.4055,480.2053 863.4055,477.0842 Q863.4055,473.9548 864.7253,472.3029 Q866.0452,470.6511 868.552,470.6511 Q869.2576,470.6511 869.905,470.8005 Q870.5525,470.9499 871.1169,471.2488 L871.1169,473.9714 Q870.4861,473.3904 869.8926,473.1206 Q869.2991,472.8508 868.6682,472.8508 Q867.3235,472.8508 866.6387,473.9175 Q865.9538,474.9841 865.9538,477.0842 Q865.9538,479.176 866.6387,480.2426 Q867.3235,481.3093 868.6682,481.3093 Q869.2991,481.3093 869.8926,481.0395 Q870.4861,480.7697 871.1169,480.1887 Z " fill="#000000"/><text fill="#000000" font-family="sans-serif" font-size="14" lengthAdjust="spacing" textLength="90.207" x="889.1438" y="482.0593">FusionEngine</text><line style="stroke:#181818;stroke-width:0.5;" x1="794.51" x2="1041.4846" y1="492.7683" y2="492.7683"/><text fill="#000000" font-family="sans-serif" font-size="14" lengthAdjust="spacing" textLength="236.9746" x="799.51" y="510.3034">-_context: InteractionContextStore</text><line style="stroke:#181818;stroke-width:0.5;" x1="794.51" x2="1041.4846" y1="517.2566" y2="517.2566"/><text fill="#000000" font-family="sans-serif" font-size="14" lengthAdjust="spacing" textLength="204.6611" x="799.51" y="534.7917">+handle_gesture_event(event)</text><text fill="#000000" font-family="sans-serif" font-size="14" lengthAdjust="spacing" textLength="188.4053" x="799.51" y="551.28">+handle_voice_event(event)</text></g><!--class InteractionContextStore--><g class="entity" data-qualified-name="core.InteractionContextStore" data-source-line="39" id="ent0012"><rect fill="#F1F1F1" height="97.4648" rx="2.5" ry="2.5" style="stroke:#181818;stroke-width:0.5;" width="196.9326" x="819.53" y="629.0883"/><ellipse cx="835.9859" cy="645.0883" fill="#ADD1B2" rx="11" ry="11" style="stroke:#181818;stroke-width:1;"/><path d="M838.4591,651.2313 Q837.878,651.5302 837.2388,651.6796 Q836.5997,651.829 835.8941,651.829 Q833.3873,651.829 832.0675,650.1771 Q830.7476,648.5253 830.7476,645.4042 Q830.7476,642.2748 832.0675,640.6229 Q833.3873,638.9711 835.8941,638.9711 Q836.5997,638.9711 837.2471,639.1205 Q837.8946,639.2699 838.4591,639.5688 L838.4591,642.2914 Q837.8282,641.7104 837.2347,641.4406 Q836.6412,641.1708 836.0103,641.1708 Q834.6656,641.1708 833.9808,642.2375 Q833.296,643.3041 833.296,645.4042 Q833.296,647.496 833.9808,648.5626 Q834.6656,649.6293 836.0103,649.6293 Q836.6412,649.6293 837.2347,649.3595 Q837.8282,649.0897 838.4591,648.5087 Z " fill="#000000"/><text fill="#000000" font-family="sans-serif" font-size="14" lengthAdjust="spacing" textLength="161.6973" x="850.3094" y="650.3793">InteractionContextStore</text><line style="stroke:#181818;stroke-width:0.5;" x1="820.53" x2="1015.4626" y1="661.0883" y2="661.0883"/><text fill="#000000" font-family="sans-serif" font-size="14" lengthAdjust="spacing" textLength="179.9219" x="825.53" y="678.6234">+state: InteractionContext</text><line style="stroke:#181818;stroke-width:0.5;" x1="820.53" x2="1015.4626" y1="685.5766" y2="685.5766"/><text fill="#000000" font-family="sans-serif" font-size="14" lengthAdjust="spacing" textLength="184.9326" x="825.53" y="703.1117">+remember_gesture(event)</text><text fill="#000000" font-family="sans-serif" font-size="14" lengthAdjust="spacing" textLength="168.6768" x="825.53" y="719.6">+remember_voice(event)</text></g><!--class InteractionContext--><g class="entity" data-qualified-name="core.InteractionContext" data-source-line="45" id="ent0013"><rect fill="#F1F1F1" height="146.9297" rx="2.5" ry="2.5" style="stroke:#181818;stroke-width:0.5;" width="165.0977" x="835.45" y="787.5483"/><ellipse cx="853.2871" cy="803.5483" fill="#ADD1B2" rx="11" ry="11" style="stroke:#181818;stroke-width:1;"/><path d="M855.7603,809.6913 Q855.1792,809.9902 854.54,810.1396 Q853.9009,810.289 853.1953,810.289 Q850.6885,810.289 849.3687,808.6371 Q848.0488,806.9853 848.0488,803.8642 Q848.0488,800.7348 849.3687,799.0829 Q850.6885,797.4311 853.1953,797.4311 Q853.9009,797.4311 854.5483,797.5805 Q855.1958,797.7299 855.7603,798.0288 L855.7603,800.7514 Q855.1294,800.1704 854.5359,799.9006 Q853.9424,799.6308 853.3115,799.6308 Q851.9668,799.6308 851.282,800.6975 Q850.5972,801.7641 850.5972,803.8642 Q850.5972,805.956 851.282,807.0226 Q851.9668,808.0893 853.3115,808.0893 Q853.9424,808.0893 854.5359,807.8195 Q855.1294,807.5497 855.7603,806.9687 Z " fill="#000000"/><text fill="#000000" font-family="sans-serif" font-size="14" lengthAdjust="spacing" textLength="126.793" x="867.9176" y="808.8393">InteractionContext</text><line style="stroke:#181818;stroke-width:0.5;" x1="836.45" x2="999.5477" y1="819.5483" y2="819.5483"/><text fill="#000000" font-family="sans-serif" font-size="14" lengthAdjust="spacing" textLength="134.251" x="841.45" y="837.0834">+selected_target_id</text><text fill="#000000" font-family="sans-serif" font-size="14" lengthAdjust="spacing" textLength="139.8291" x="841.45" y="853.5717">+last_point_position</text><text fill="#000000" font-family="sans-serif" font-size="14" lengthAdjust="spacing" textLength="93.3994" x="841.45" y="870.06">+last_gesture</text><text fill="#000000" font-family="sans-serif" font-size="14" lengthAdjust="spacing" textLength="77.1436" x="841.45" y="886.5483">+last_voice</text><text fill="#000000" font-family="sans-serif" font-size="14" lengthAdjust="spacing" textLength="153.0977" x="841.45" y="903.0366">+pending_clarification</text><text fill="#000000" font-family="sans-serif" font-size="14" lengthAdjust="spacing" textLength="124.3184" x="841.45" y="919.5248">+recent_event_ids</text><line style="stroke:#181818;stroke-width:0.5;" x1="836.45" x2="999.5477" y1="926.478" y2="926.478"/></g><!--class ApplicationController--><g class="entity" data-qualified-name="core.ApplicationController" data-source-line="54" id="ent0014"><rect fill="#F1F1F1" height="80.9766" rx="2.5" ry="2.5" style="stroke:#181818;stroke-width:0.5;" width="177.0107" x="1076.49" y="637.3283"/><ellipse cx="1091.49" cy="653.3283" fill="#B4A7E5" rx="11" ry="11" style="stroke:#181818;stroke-width:1;"/><path d="M1087.9177,649.5934 L1087.9177,647.4352 L1095.2971,647.4352 L1095.2971,649.5934 L1092.8318,649.5934 L1092.8318,657.6701 L1095.2971,657.6701 L1095.2971,659.8283 L1087.9177,659.8283 L1087.9177,657.6701 L1090.3831,657.6701 L1090.3831,649.5934 Z " fill="#000000"/><text fill="#000000" font-family="sans-serif" font-size="14" font-style="italic" lengthAdjust="spacing" textLength="145.0107" x="1105.49" y="658.6193">ApplicationController</text><line style="stroke:#181818;stroke-width:0.5;" x1="1077.49" x2="1252.5007" y1="669.3283" y2="669.3283"/><text fill="#000000" font-family="sans-serif" font-size="14" lengthAdjust="spacing" textLength="56.3418" x="1082.49" y="686.8634">+app_id</text><line style="stroke:#181818;stroke-width:0.5;" x1="1077.49" x2="1252.5007" y1="693.8166" y2="693.8166"/><text fill="#000000" font-family="sans-serif" font-size="14" lengthAdjust="spacing" textLength="155.9482" x="1082.49" y="711.3517">+handle_action(action)</text></g><!--class ApplicationRouter--><g class="entity" data-qualified-name="core.ApplicationRouter" data-source-line="59" id="ent0015"><rect fill="#F1F1F1" height="97.4648" rx="2.5" ry="2.5" style="stroke:#181818;stroke-width:0.5;" width="176.2061" x="1077.9" y="460.7683"/><ellipse cx="1103.003" cy="476.7683" fill="#ADD1B2" rx="11" ry="11" style="stroke:#181818;stroke-width:1;"/><path d="M1105.4762,482.9113 Q1104.8951,483.2102 1104.256,483.3596 Q1103.6168,483.509 1102.9112,483.509 Q1100.4044,483.509 1099.0846,481.8571 Q1097.7647,480.2053 1097.7647,477.0842 Q1097.7647,473.9548 1099.0846,472.3029 Q1100.4044,470.6511 1102.9112,470.6511 Q1103.6168,470.6511 1104.2643,470.8005 Q1104.9117,470.9499 1105.4762,471.2488 L1105.4762,473.9714 Q1104.8453,473.3904 1104.2518,473.1206 Q1103.6583,472.8508 1103.0274,472.8508 Q1101.6827,472.8508 1100.9979,473.9175 Q1100.3131,474.9841 1100.3131,477.0842 Q1100.3131,479.176 1100.9979,480.2426 Q1101.6827,481.3093 1103.0274,481.3093 Q1103.6583,481.3093 1104.2518,481.0395 Q1104.8453,480.7697 1105.4762,480.1887 Z " fill="#000000"/><text fill="#000000" font-family="sans-serif" font-size="14" lengthAdjust="spacing" textLength="121.7549" x="1119.2481" y="482.0593">ApplicationRouter</text><line style="stroke:#181818;stroke-width:0.5;" x1="1078.9" x2="1253.1061" y1="492.7683" y2="492.7683"/><line style="stroke:#181818;stroke-width:0.5;" x1="1078.9" x2="1253.1061" y1="500.7683" y2="500.7683"/><text fill="#000000" font-family="sans-serif" font-size="14" lengthAdjust="spacing" textLength="97.7949" x="1083.9" y="518.3034">+register(app)</text><text fill="#000000" font-family="sans-serif" font-size="14" lengthAdjust="spacing" textLength="164.2061" x="1083.9" y="534.7917">+set_active_app(app_id)</text><text fill="#000000" font-family="sans-serif" font-size="14" lengthAdjust="spacing" textLength="97.7607" x="1083.9" y="551.28">+route(action)</text></g><!--class DemoCanvasApp--><g class="entity" data-qualified-name="apps.DemoCanvasApp" data-source-line="67" id="ent0017"><rect fill="#F1F1F1" height="48" rx="2.5" ry="2.5" style="stroke:#181818;stroke-width:0.5;" width="147.459" x="1365.27" y="78.4883"/><ellipse cx="1380.27" cy="94.4883" fill="#ADD1B2" rx="11" ry="11" style="stroke:#181818;stroke-width:1;"/><path d="M1382.7431,100.6313 Q1382.1621,100.9302 1381.5229,101.0796 Q1380.8838,101.229 1380.1782,101.229 Q1377.6714,101.229 1376.3515,99.5771 Q1375.0317,97.9253 1375.0317,94.8042 Q1375.0317,91.6748 1376.3515,90.0229 Q1377.6714,88.3711 1380.1782,88.3711 Q1380.8838,88.3711 1381.5312,88.5205 Q1382.1787,88.6699 1382.7431,88.9688 L1382.7431,91.6914 Q1382.1123,91.1104 1381.5188,90.8406 Q1380.9253,90.5708 1380.2944,90.5708 Q1378.9497,90.5708 1378.2649,91.6375 Q1377.5801,92.7041 1377.5801,94.8042 Q1377.5801,96.896 1378.2649,97.9626 Q1378.9497,99.0293 1380.2944,99.0293 Q1380.9253,99.0293 1381.5188,98.7595 Q1382.1123,98.4897 1382.7431,97.9087 Z " fill="#000000"/><text fill="#000000" font-family="sans-serif" font-size="14" lengthAdjust="spacing" textLength="115.459" x="1394.27" y="99.7793">DemoCanvasApp</text><line style="stroke:#181818;stroke-width:0.5;" x1="1366.27" x2="1511.729" y1="110.4883" y2="110.4883"/><line style="stroke:#181818;stroke-width:0.5;" x1="1366.27" x2="1511.729" y1="118.4883" y2="118.4883"/></g><!--class ShapePuzzleApp--><g class="entity" data-qualified-name="apps.ShapePuzzleApp" data-source-line="68" id="ent0018"><rect fill="#F1F1F1" height="48" rx="2.5" ry="2.5" style="stroke:#181818;stroke-width:0.5;" width="144.1777" x="1547.91" y="78.4883"/><ellipse cx="1562.91" cy="94.4883" fill="#ADD1B2" rx="11" ry="11" style="stroke:#181818;stroke-width:1;"/><path d="M1565.3831,100.6313 Q1564.8021,100.9302 1564.1629,101.0796 Q1563.5238,101.229 1562.8182,101.229 Q1560.3114,101.229 1558.9915,99.5771 Q1557.6717,97.9253 1557.6717,94.8042 Q1557.6717,91.6748 1558.9915,90.0229 Q1560.3114,88.3711 1562.8182,88.3711 Q1563.5238,88.3711 1564.1712,88.5205 Q1564.8187,88.6699 1565.3831,88.9688 L1565.3831,91.6914 Q1564.7523,91.1104 1564.1588,90.8406 Q1563.5653,90.5708 1562.9344,90.5708 Q1561.5897,90.5708 1560.9049,91.6375 Q1560.2201,92.7041 1560.2201,94.8042 Q1560.2201,96.896 1560.9049,97.9626 Q1561.5897,99.0293 1562.9344,99.0293 Q1563.5653,99.0293 1564.1588,98.7595 Q1564.7523,98.4897 1565.3831,97.9087 Z " fill="#000000"/><text fill="#000000" font-family="sans-serif" font-size="14" lengthAdjust="spacing" textLength="112.1777" x="1576.91" y="99.7793">ShapePuzzleApp</text><line style="stroke:#181818;stroke-width:0.5;" x1="1548.91" x2="1691.0877" y1="110.4883" y2="110.4883"/><line style="stroke:#181818;stroke-width:0.5;" x1="1548.91" x2="1691.0877" y1="118.4883" y2="118.4883"/></g><!--class LoggingDemoApp--><g class="entity" data-qualified-name="apps.LoggingDemoApp" data-source-line="69" id="ent0019"><rect fill="#F1F1F1" height="48" rx="2.5" ry="2.5" style="stroke:#181818;stroke-width:0.5;" width="154.2266" x="1726.89" y="78.4883"/><ellipse cx="1741.89" cy="94.4883" fill="#ADD1B2" rx="11" ry="11" style="stroke:#181818;stroke-width:1;"/><path d="M1744.3631,100.6313 Q1743.7821,100.9302 1743.1429,101.0796 Q1742.5038,101.229 1741.7982,101.229 Q1739.2914,101.229 1737.9715,99.5771 Q1736.6517,97.9253 1736.6517,94.8042 Q1736.6517,91.6748 1737.9715,90.0229 Q1739.2914,88.3711 1741.7982,88.3711 Q1742.5038,88.3711 1743.1512,88.5205 Q1743.7987,88.6699 1744.3631,88.9688 L1744.3631,91.6914 Q1743.7323,91.1104 1743.1388,90.8406 Q1742.5453,90.5708 1741.9144,90.5708 Q1740.5697,90.5708 1739.8849,91.6375 Q1739.2001,92.7041 1739.2001,94.8042 Q1739.2001,96.896 1739.8849,97.9626 Q1740.5697,99.0293 1741.9144,99.0293 Q1742.5453,99.0293 1743.1388,98.7595 Q1743.7323,98.4897 1744.3631,97.9087 Z " fill="#000000"/><text fill="#000000" font-family="sans-serif" font-size="14" lengthAdjust="spacing" textLength="122.2266" x="1755.89" y="99.7793">LoggingDemoApp</text><line style="stroke:#181818;stroke-width:0.5;" x1="1727.89" x2="1880.1166" y1="110.4883" y2="110.4883"/><line style="stroke:#181818;stroke-width:0.5;" x1="1727.89" x2="1880.1166" y1="118.4883" y2="118.4883"/></g><!--class GestureDetector--><g class="entity" data-qualified-name="modalities.GestureDetector" data-source-line="73" id="ent0021"><rect fill="#F1F1F1" height="48" rx="2.5" ry="2.5" style="stroke:#181818;stroke-width:0.5;" width="142.5645" x="212.72" y="268.1983"/><ellipse cx="227.72" cy="284.1983" fill="#ADD1B2" rx="11" ry="11" style="stroke:#181818;stroke-width:1;"/><path d="M230.1931,290.3413 Q229.6121,290.6402 228.9729,290.7896 Q228.3338,290.939 227.6282,290.939 Q225.1214,290.939 223.8015,289.2871 Q222.4817,287.6353 222.4817,284.5142 Q222.4817,281.3848 223.8015,279.7329 Q225.1214,278.0811 227.6282,278.0811 Q228.3338,278.0811 228.9812,278.2305 Q229.6287,278.3799 230.1931,278.6788 L230.1931,281.4014 Q229.5623,280.8204 228.9688,280.5506 Q228.3753,280.2808 227.7444,280.2808 Q226.3997,280.2808 225.7149,281.3475 Q225.0301,282.4141 225.0301,284.5142 Q225.0301,286.606 225.7149,287.6726 Q226.3997,288.7393 227.7444,288.7393 Q228.3753,288.7393 228.9688,288.4695 Q229.5623,288.1997 230.1931,287.6187 Z " fill="#000000"/><text fill="#000000" font-family="sans-serif" font-size="14" lengthAdjust="spacing" textLength="110.5645" x="241.72" y="289.4893">GestureDetector</text><line style="stroke:#181818;stroke-width:0.5;" x1="213.72" x2="354.2845" y1="300.1983" y2="300.1983"/><line style="stroke:#181818;stroke-width:0.5;" x1="213.72" x2="354.2845" y1="308.1983" y2="308.1983"/></g><!--class VoskVoiceAdapter--><g class="entity" data-qualified-name="modalities.VoskVoiceAdapter" data-source-line="74" id="ent0022"><rect fill="#F1F1F1" height="48" rx="2.5" ry="2.5" style="stroke:#181818;stroke-width:0.5;" width="155.6211" x="22.19" y="268.1983"/><ellipse cx="37.19" cy="284.1983" fill="#ADD1B2" rx="11" ry="11" style="stroke:#181818;stroke-width:1;"/><path d="M39.6631,290.3413 Q39.0821,290.6402 38.4429,290.7896 Q37.8038,290.939 37.0982,290.939 Q34.5914,290.939 33.2715,289.2871 Q31.9517,287.6353 31.9517,284.5142 Q31.9517,281.3848 33.2715,279.7329 Q34.5914,278.0811 37.0982,278.0811 Q37.8038,278.0811 38.4512,278.2305 Q39.0987,278.3799 39.6631,278.6788 L39.6631,281.4014 Q39.0323,280.8204 38.4388,280.5506 Q37.8453,280.2808 37.2144,280.2808 Q35.8697,280.2808 35.1849,281.3475 Q34.5001,282.4141 34.5001,284.5142 Q34.5001,286.606 35.1849,287.6726 Q35.8697,288.7393 37.2144,288.7393 Q37.8453,288.7393 38.4388,288.4695 Q39.0323,288.1997 39.6631,287.6187 Z " fill="#000000"/><text fill="#000000" font-family="sans-serif" font-size="14" lengthAdjust="spacing" textLength="123.6211" x="51.19" y="289.4893">VoskVoiceAdapter</text><line style="stroke:#181818;stroke-width:0.5;" x1="23.19" x2="176.8111" y1="300.1983" y2="300.1983"/><line style="stroke:#181818;stroke-width:0.5;" x1="23.19" x2="176.8111" y1="308.1983" y2="308.1983"/></g><g class="entity" data-qualified-name="GMN41" data-source-line="103" id="ent0042"><path d="M1289.5,450.9083 L1289.5,568.0821 L1540.5073,568.0821 L1540.5073,460.9083 L1530.5073,450.9083 L1289.5,450.9083" fill="#FEFFDD" style="stroke:#181818;stroke-width:0.5;"/><path d="M1530.5073,450.9083 L1530.5073,460.9083 L1540.5073,460.9083 L1530.5073,450.9083" fill="#FEFFDD" style="stroke:#181818;stroke-width:1;"/><text fill="#000000" font-family="sans-serif" font-size="13" lengthAdjust="spacing" textLength="122.04" x="1295.5" y="468.4766">Implemented rules:</text><text fill="#000000" font-family="sans-serif" font-size="13" lengthAdjust="spacing" textLength="215.0967" x="1295.5" y="483.7872">- swipe gestures -&gt; move actions</text><text fill="#000000" font-family="sans-serif" font-size="13" lengthAdjust="spacing" textLength="184.1201" x="1295.5" y="499.0977">- point/pinch/grab -&gt; select</text><text fill="#000000" font-family="sans-serif" font-size="13" lengthAdjust="spacing" textLength="134.145" x="1295.5" y="514.4083">- release -&gt; deselect</text><text fill="#000000" font-family="sans-serif" font-size="13" lengthAdjust="spacing" textLength="213.4844" x="1295.5" y="529.7188">- open_palm/fist -&gt; menu toggle</text><text fill="#000000" font-family="sans-serif" font-size="13" lengthAdjust="spacing" textLength="230.0073" x="1295.5" y="545.0294">- voice left/right/up/down -&gt; move</text><text fill="#000000" font-family="sans-serif" font-size="13" lengthAdjust="spacing" textLength="214.2017" x="1295.5" y="560.3399">- voice rotate-left/right -&gt; rotate</text></g><g class="entity" data-qualified-name="GMN44" data-source-line="113" id="ent0045"><path d="M1465.81,271.8883 L1465.81,312.5094 A0,0 0 0 0 1465.81,312.5094 L1826.1874,312.5094 A0,0 0 0 0 1826.1874,312.5094 L1826.1874,281.8883 L1816.1874,271.8883 L1647.27,271.8883 L1623.24,126.8883 L1639.27,271.8883 L1465.81,271.8883 A0,0 0 0 0 1465.81,271.8883" fill="#FEFFDD" style="stroke:#181818;stroke-width:0.5;"/><path d="M1816.1874,271.8883 L1816.1874,281.8883 L1826.1874,281.8883 L1816.1874,271.8883" fill="#FEFFDD" style="stroke:#181818;stroke-width:0.5;"/><text fill="#000000" font-family="sans-serif" font-size="13" lengthAdjust="spacing" textLength="339.3774" x="1471.81" y="289.4566">The game also consumes raw runtime events directly,</text><text fill="#000000" font-family="sans-serif" font-size="13" lengthAdjust="spacing" textLength="338.749" x="1471.81" y="304.7672">so not all behavior flows only through routed actions.</text></g><!--link GestureEvent to GestureType--><g class="link" data-entity-1="ent0003" data-entity-2="ent0006" data-link-type="dependency" data-source-line="77" id="lnk23"><path codeLine="77" d="M275,533.9783 C275,565.6683 275,615.8183 275,647.4583" fill="none" id="GestureEvent-to-GestureType" style="stroke:#181818;stroke-width:1;"/><polygon fill="#181818" points="275,653.4583,279,644.4583,275,648.4583,271,644.4583,275,653.4583" style="stroke:#181818;stroke-width:1;"/></g><!--link ActionPayload to ActionType--><g class="link" data-entity-1="ent0005" data-entity-2="ent0007" data-link-type="dependency" data-source-line="78" id="lnk24"><path codeLine="78" d="M434,533.9783 C434,565.6683 434,615.8183 434,647.4583" fill="none" id="ActionPayload-to-ActionType" style="stroke:#181818;stroke-width:1;"/><polygon fill="#181818" points="434,653.4583,438,644.4583,434,648.4583,430,644.4583,434,653.4583" style="stroke:#181818;stroke-width:1;"/></g><!--reverse link CollaborationRuntime to EventBus--><g class="link" data-entity-1="ent0009" data-entity-2="ent0010" data-link-type="composition" data-source-line="80" id="lnk25"><path codeLine="80" d="M769.5043,383.1824 C745.9643,409.1724 728.49,428.4583 706.93,452.2683" fill="none" id="CollaborationRuntime-backto-EventBus" style="stroke:#181818;stroke-width:1;"/><polygon fill="#181818" points="777.56,374.2883,770.5674,376.0501,769.5043,383.1824,776.4969,381.4206,777.56,374.2883" style="stroke:#181818;stroke-width:1;"/></g><!--reverse link CollaborationRuntime to FusionEngine--><g class="link" data-entity-1="ent0009" data-entity-2="ent0011" data-link-type="composition" data-source-line="81" id="lnk26"><path codeLine="81" d="M879.7974,385.7458 C888.8174,414.7158 895.11,434.9583 902.99,460.2683" fill="none" id="CollaborationRuntime-backto-FusionEngine" style="stroke:#181818;stroke-width:1;"/><polygon fill="#181818" points="876.23,374.2883,874.1945,381.2061,879.7974,385.7458,881.8328,378.8279,876.23,374.2883" style="stroke:#181818;stroke-width:1;"/></g><!--reverse link CollaborationRuntime to ApplicationRouter--><g class="link" data-entity-1="ent0009" data-entity-2="ent0015" data-link-type="composition" data-source-line="82" id="lnk27"><path codeLine="82" d="M958.8466,366.9102 C1006.3466,399.3802 1052.41,430.8583 1095.62,460.3983" fill="none" id="CollaborationRuntime-backto-ApplicationRouter" style="stroke:#181818;stroke-width:1;"/><polygon fill="#181818" points="948.94,360.1383,951.636,366.8265,958.8466,366.9102,956.1506,360.2221,948.94,360.1383" style="stroke:#181818;stroke-width:1;"/></g><!--reverse link FusionEngine to InteractionContextStore--><g class="link" data-entity-1="ent0011" data-entity-2="ent0012" data-link-type="composition" data-source-line="84" id="lnk28"><path codeLine="84" d="M918,570.6083 C918,592.6683 918,606.7683 918,628.8183" fill="none" id="FusionEngine-backto-InteractionContextStore" style="stroke:#181818;stroke-width:1;"/><polygon fill="#181818" points="918,558.6083,914,564.6083,918,570.6083,922,564.6083,918,558.6083" style="stroke:#181818;stroke-width:1;"/></g><!--reverse link InteractionContextStore to InteractionContext--><g class="link" data-entity-1="ent0012" data-entity-2="ent0013" data-link-type="composition" data-source-line="85" id="lnk29"><path codeLine="85" d="M918,738.8983 C918,757.3483 918,766.8483 918,787.1083" fill="none" id="InteractionContextStore-backto-InteractionContext" style="stroke:#181818;stroke-width:1;"/><polygon fill="#181818" points="918,726.8983,914,732.8983,918,738.8983,922,732.8983,918,726.8983" style="stroke:#181818;stroke-width:1;"/></g><!--link CollaborationRuntime to GestureEvent--><g class="link" data-entity-1="ent0009" data-entity-2="ent0003" data-link-type="dependency" data-source-line="87" id="lnk30"><path codeLine="87" d="M752.77,334.4083 C682.39,362.4783 584.74,398.4783 496,420.9083 C433.68,436.6583 411.53,415.9383 353,442.4983 C331.03,452.4683 314.6079,466.201 300.0879,480.891" fill="none" id="CollaborationRuntime-to-GestureEvent" style="stroke:#181818;stroke-width:1;stroke-dasharray:7,7;"/><polygon fill="#181818" points="295.87,485.1583,305.0417,481.5693,299.3849,481.6022,299.352,475.9455,295.87,485.1583" style="stroke:#181818;stroke-width:1;"/></g><!--link CollaborationRuntime to VoiceEvent--><g class="link" data-entity-1="ent0009" data-entity-2="ent0004" data-link-type="dependency" data-source-line="88" id="lnk31"><path codeLine="88" d="M753.16,318.9683 C647.5,346.2983 474.02,389.7483 323,420.9083 C267.36,432.3883 247.84,417.1283 197,442.4983 C176.67,452.6383 162.1515,466.122 149.2815,480.762" fill="none" id="CollaborationRuntime-to-VoiceEvent" style="stroke:#181818;stroke-width:1;stroke-dasharray:7,7;"/><polygon fill="#181818" points="145.32,485.2683,154.2664,481.1498,148.6212,481.513,148.258,475.8679,145.32,485.2683" style="stroke:#181818;stroke-width:1;"/></g><!--link CollaborationRuntime to ActionPayload--><g class="link" data-entity-1="ent0009" data-entity-2="ent0005" data-link-type="dependency" data-source-line="89" id="lnk32"><path codeLine="89" d="M752.89,336.3183 C690.43,364.6583 608.33,403.5883 538,442.4983 C514.24,455.6383 493.46,468.6868 473.52,481.8268" fill="none" id="CollaborationRuntime-to-ActionPayload" style="stroke:#181818;stroke-width:1;stroke-dasharray:7,7;"/><polygon fill="#181818" points="468.51,485.1283,478.226,483.5161,472.685,482.377,473.824,476.8361,468.51,485.1283" style="stroke:#181818;stroke-width:1;"/></g><!--link ApplicationRouter to ApplicationController--><g class="link" data-entity-1="ent0015" data-entity-2="ent0014" data-link-type="dependency" data-source-line="91" id="lnk33"><path codeLine="91" d="M1165.71,558.6083 C1165.56,583.4483 1165.4157,607.4084 1165.2757,630.9484" fill="none" id="ApplicationRouter-to-ApplicationController" style="stroke:#181818;stroke-width:1;stroke-dasharray:7,7;"/><polygon fill="#181818" points="1165.24,636.9483,1169.2935,627.9722,1165.2697,631.9484,1161.2936,627.9247,1165.24,636.9483" style="stroke:#181818;stroke-width:1;"/></g><!--link DemoCanvasApp to ApplicationController--><g class="link" data-entity-1="ent0017" data-entity-2="ent0014" data-link-type="extension" data-source-line="92" id="lnk34"><path codeLine="92" d="M1432.93,126.8083 C1421.46,176.2383 1401.64,293.5483 1448,373.9083 C1476.79,423.8183 1530.04,392.1183 1558,442.4983 C1585.08,491.2983 1591.8,523.6683 1558,568.0883 C1521.29,616.3183 1375.6179,645.923 1271.4179,662.063" fill="none" id="DemoCanvasApp-to-ApplicationController" style="stroke:#181818;stroke-width:1;stroke-dasharray:7,7;"/><polygon fill="none" points="1253.63,664.8183,1272.3363,667.9923,1270.4995,656.1337,1253.63,664.8183" style="stroke:#181818;stroke-width:1;"/></g><!--link ShapePuzzleApp to ApplicationController--><g class="link" data-entity-1="ent0018" data-entity-2="ent0014" data-link-type="extension" data-source-line="93" id="lnk35"><path codeLine="93" d="M1656.8,126.7583 C1672.35,135.5583 1691,144.8183 1709,150.4883 C1737.84,159.5883 1824,144.8183 1844,167.4883 C1904.68,236.2983 1884.25,291.4683 1844,373.9083 C1735.96,595.1583 1429.8578,653.0487 1271.6978,669.1187" fill="none" id="ShapePuzzleApp-to-ApplicationController" style="stroke:#181818;stroke-width:1;stroke-dasharray:7,7;"/><polygon fill="none" points="1253.79,670.9383,1272.3043,675.088,1271.0913,663.1495,1253.79,670.9383" style="stroke:#181818;stroke-width:1;"/></g><!--link LoggingDemoApp to ApplicationController--><g class="link" data-entity-1="ent0019" data-entity-2="ent0014" data-link-type="extension" data-source-line="94" id="lnk36"><path codeLine="94" d="M1850.14,126.8083 C1865.39,137.0483 1880.59,150.6283 1889,167.4883 C1929.95,249.5883 1917.63,286.7483 1889,373.9083 C1855.55,475.7383 1836.2,510.1983 1746,568.0883 C1665.74,619.5983 1413.6331,651.7635 1271.7331,666.5435" fill="none" id="LoggingDemoApp-to-ApplicationController" style="stroke:#181818;stroke-width:1;stroke-dasharray:7,7;"/><polygon fill="none" points="1253.83,668.4083,1272.3547,672.5112,1271.1116,660.5758,1253.83,668.4083" style="stroke:#181818;stroke-width:1;"/></g><!--link GestureDetector to GestureEvent--><g class="link" data-entity-1="ent0021" data-entity-2="ent0003" data-link-type="dependency" data-source-line="96" id="lnk37"><path codeLine="96" d="M283.02,316.6483 C281.29,358.0683 277.9605,437.6835 276.2305,479.0835" fill="none" id="GestureDetector-to-GestureEvent" style="stroke:#181818;stroke-width:1;stroke-dasharray:7,7;"/><polygon fill="#181818" points="275.98,485.0783,280.3523,476.2531,276.1888,480.0826,272.3592,475.9191,275.98,485.0783" style="stroke:#181818;stroke-width:1;"/><text fill="#000000" font-family="sans-serif" font-size="13" lengthAdjust="spacing" textLength="34.6265" x="280.23" y="417.4766">emits</text></g><!--link VoskVoiceAdapter to VoiceEvent--><g class="link" data-entity-1="ent0022" data-entity-2="ent0004" data-link-type="dependency" data-source-line="97" id="lnk38"><path codeLine="97" d="M102.94,316.6483 C108.13,358.0683 118.1237,437.7249 123.3137,479.1249" fill="none" id="VoskVoiceAdapter-to-VoiceEvent" style="stroke:#181818;stroke-width:1;stroke-dasharray:7,7;"/><polygon fill="#181818" points="124.06,485.0783,126.9094,475.6506,123.4381,480.1171,118.9716,476.6457,124.06,485.0783" style="stroke:#181818;stroke-width:1;"/><text fill="#000000" font-family="sans-serif" font-size="13" lengthAdjust="spacing" textLength="34.6265" x="116.92" y="417.4766">emits</text></g><!--link DemoCanvasApp to CollaborationRuntime--><g class="link" data-entity-1="ent0017" data-entity-2="ent0009" data-link-type="dependency" data-source-line="99" id="lnk39"><path codeLine="99" d="M1365.42,126.9783 C1260.19,160.5783 1072.1958,220.5836 954.8558,258.0436" fill="none" id="DemoCanvasApp-to-CollaborationRuntime" style="stroke:#181818;stroke-width:1;stroke-dasharray:7,7;"/><polygon fill="#181818" points="949.14,259.8683,958.9302,260.9417,953.9032,258.3477,956.4972,253.3207,949.14,259.8683" style="stroke:#181818;stroke-width:1;"/></g><!--link ShapePuzzleApp to CollaborationRuntime--><g class="link" data-entity-1="ent0018" data-entity-2="ent0009" data-link-type="dependency" data-source-line="100" id="lnk40"><path codeLine="100" d="M1581.2,126.7683 C1565.7,135.2483 1547.43,144.2683 1530,150.4883 C1530,150.4883 1142.9152,230.7109 954.8852,269.6709" fill="none" id="ShapePuzzleApp-to-CollaborationRuntime" style="stroke:#181818;stroke-width:1;stroke-dasharray:7,7;"/><polygon fill="#181818" points="949.01,270.8883,958.6344,272.9791,953.906,269.8738,957.0112,265.1455,949.01,270.8883" style="stroke:#181818;stroke-width:1;"/></g><!--link FusionEngine to GMN41--><g class="link" data-entity-1="ent0011" data-entity-2="ent0042" data-link-type="association" data-source-line="103" id="lnk43"><path d="M977.26,460.4783 C1005.72,440.0583 1041.43,418.6883 1077.5,408.2083 C1152.19,386.4883 1177.72,386.8083 1252.5,408.2083 C1283.18,416.9883 1313.7,433.4183 1339.87,450.5383" fill="none" id="FusionEngine-GMN41" style="stroke:#181818;stroke-width:1;stroke-dasharray:7,7;"/></g><?plantuml-src ZLOzRzim4DtrAmwTdBQEEti8a3ff4Q13q0HP1KewIqGeKY0fkqxR_zuZAScKB0KTRDbtxtZVZxBS2eITqWWFTIEmHccPvKh22yTZafXNBXkcMGqPorzBhLfPx9HG6euLjnZfJSKATUIoX3qJ9jRaWXbpQwtcMMln8LVoYRyXV4cIXiva9S87abdDSci-mEy4WWLyHsDRZVS7YcaGlYYUJqItkGluaPs4OWL9KRPrR_nyQh0N1PoN_1tvrXYxfVG4ovJsPVZPIijhz6g0Jrbhjk2zVsrD4ErRGxWjVFFFUrboYK53nRAejt3RD8BduJWlwjHOSaF_KjOqA_fS1R51cr8b-05xHSgBJbSnMGXCov3R2bqWOzN1bUUie3pxjFge-rHCcvcSMeAfHvjLE45VJTNCbssgRzfCS5C5ur4alIROhS9Z4anSh2wWTUg607_PBJpGKmUxNP0zMMhIN0rc_CULcAgZ41QS3EMXDS2vKFhcrLXdrBovNWpAvMvSdZiuHe6vnIArJ9Sq2xm8SZApQQEuTD-6Eyj8qOKHIRplhYCe2rhCb5nhlkz6iGyrf-12cSYLwQFaBhuzop6UNXUffkr0tGSRfdDKz_VQVh49_JdzBlpd7lZD6hc85vgW8nwvmrhjc3mmG_u7wLF56dnitzu4nk8VggIXB9sD4yVdrgfWWWgFSonrXvRQfdH4LERLazLjmHgtz7HKp6YmNj-CM6f4OruR4LOooqeVr-ip6oqYHioqYBfagMIqfGwpj9XBkpHliv3CzVNDcF8NKT4Ti8WPNmh9vUHvqDni9wDv8ToV9U1uXDv3ZgVgFMGocQUBii0MiERM9DC1cvHcm5taSpDxnLrciu1BfB88cfUL1RKVJzVm3e45w5QWsIPhC4VU87GCPO06krO7XEvU8O1djKt3PLvjIiqo1maqI4fDFvX19ojma2hYjBHXejxiYJZycNJ7WwKw2oIzPpyGkBSR7-ccRJRqUY9xxmD4AqVqwpFI8O8m8Te4bsoNSgQiLRNBUS8TpnMbnsZmwCL70LrZfgqfKSsEL8Gmak6EXO8JuLfn-fmGa0ub2m4PLkp0gTLxeOu6b1Gdi1LnN5c1PxgYhzNrEQH_?></g></svg>